<svg width="19" height="18" viewBox="0 0 19 18" fill="none" xmlns="http://www.w3.org/2000/svg">
<path d="M11.6134 14.8008C11.5314 14.7188 11.4698 14.6279 11.4288 14.5283C11.3878 14.4287 11.3673 14.3262 11.3673 14.2207C11.3673 14.1035 11.3878 13.998 11.4288 13.9043C11.4698 13.8105 11.5255 13.7227 11.5958 13.6406L15.3751 9.86133H0.978638C0.755981 9.86133 0.565552 9.78223 0.407349 9.62402C0.249146 9.46582 0.170044 9.26953 0.170044 9.03516C0.170044 8.8125 0.249146 8.62207 0.407349 8.46387C0.565552 8.30566 0.755981 8.22656 0.978638 8.22656H15.3751L11.5958 4.44727C11.5255 4.36523 11.4698 4.27734 11.4288 4.18359C11.3878 4.08984 11.3673 3.98438 11.3673 3.86719C11.3673 3.76172 11.3878 3.65918 11.4288 3.55957C11.4698 3.45996 11.5255 3.36914 11.5958 3.28711C11.6779 3.2168 11.7657 3.16113 11.8595 3.12012C11.9532 3.0791 12.0587 3.05859 12.1759 3.05859C12.2814 3.05859 12.3839 3.0791 12.4835 3.12012C12.5831 3.16113 12.6681 3.22266 12.7384 3.30469L17.8712 8.47266C17.9064 8.50781 17.9386 8.5459 17.9679 8.58691C17.9972 8.62793 18.0236 8.67188 18.047 8.71875C18.0587 8.76562 18.0704 8.81543 18.0822 8.86816C18.0939 8.9209 18.0997 8.97656 18.0997 9.03516C18.0997 9.15234 18.0792 9.25781 18.0382 9.35156C17.9972 9.44531 17.9415 9.52734 17.8712 9.59766L12.7384 14.7832C12.6681 14.8535 12.5831 14.9121 12.4835 14.959C12.3839 15.0059 12.2755 15.0293 12.1583 15.0293C12.0529 15.0293 11.9532 15.0088 11.8595 14.9678C11.7657 14.9268 11.6837 14.8711 11.6134 14.8008Z" fill="white"/>
</svg>
