<?xml version="1.0" encoding="UTF-8"?> <svg xmlns="http://www.w3.org/2000/svg" xmlns:xlink="http://www.w3.org/1999/xlink" version="1.1" id="Layer_1" x="0px" y="0px" viewBox="0 0 800 800" style="enable-background:new 0 0 800 800;" xml:space="preserve"> <style type="text/css"> .st0{fill:#FFFFFF;} .st1{fill:#CBD64A;} .st2{fill:#2A1A43;} </style> <rect x="156.4" y="568.7" class="st0" width="75" height="112.5"></rect> <rect x="287.6" y="493.7" class="st0" width="75" height="187.4"></rect> <rect x="418.7" y="418.7" class="st0" width="75" height="262.4"></rect> <rect x="549.9" y="343.8" class="st0" width="75" height="337.4"></rect> <path class="st1" d="M250.9,409.1l-10.2,28.4L222,484.3l-43,28.7c-7.8,5.2-18.1,4.4-24.9-1.9c-3.9-3.6-6.3-8.5-6.5-13.9 c-0.2-5.3,1.7-10.5,5.3-14.3l30.7-32.5l10.2-31.7l9.7-30.3C214.6,397.4,233.2,404.2,250.9,409.1z"></path> <path class="st1" d="M203.6,388.5c-6-4.9-9.7-10.4-9.7-16.6c0-23.1,4.7-41.7,7.5-50.6l7.4-33.5l-0.2-0.5l-24.1,9.7L163,335.7 c-2.6,4.8-6.9,8.2-12.1,9.7c-5.2,1.4-10.8,0.8-15.5-1.8c-4.4-2.4-7.6-6.6-8.9-11.4c-1.4-4.8-0.7-9.9,1.8-14.3l28.9-50 c1.9-3.3,4.6-6,8-7.8c17.2-9.2,72.8-38.1,90.2-38.1c10.7,0,41.5,13.2,41.5,38.3c0,0.8,0,1.8-0.1,2.7c-0.9,13.8-8.7,35.2-15.8,52.6 c-6.6,15.8-12.6,28.2-12.6,28.2l65.7,49c6,4.5,9,11.8,8,19.1l-11.8,81.8h-36.6l3.3-75c0,0-22.2-3.1-46-9.7 C233.2,404.2,214.6,397.4,203.6,388.5z"></path> <path class="st1" d="M315.9,287.7l9.2,9.2h37.5c10.3,0,18.7,8.4,18.7,18.7c0,10.3-8.4,18.7-18.7,18.7h-34.2c-2.2,0-4.3-0.4-6.4-1 l-17-5.6l-24-12.2c7.1-17.3,14.9-38.8,15.8-52.6L315.9,287.7z"></path> <path class="st0" d="M343.8,165.4c0,26.5-20.8,37.8-32.2,37.8c-25.5,0-42.7-20.4-42.7-48.6c0-16.5,11.1-35.7,40.8-35.7 C323.1,118.9,343.8,134.1,343.8,165.4z"></path> <polygon class="st1" points="681.1,147 653,175.1 681.1,212.6 578,212.6 578,147 "></polygon> <path class="st2" d="M156.4,608.3c-3.9,0-7-3.1-7-7v-32.6c0-3.9,3.1-7,7-7h75c3.9,0,7,3.1,7,7v0.5c0,3.9-3.1,7-7,7 c-0.9,0-1.7-0.2-2.5-0.5h-65.4v25.6C163.4,605.2,160.2,608.3,156.4,608.3z"></path> <path class="st2" d="M231.3,688.2h-75c-3.9,0-7-3.1-7-7v-8.4c0-3.9,3.1-7,7-7s7,3.1,7,7v1.4h60.9v-33.5c0-3.9,3.1-7,7-7s7,3.1,7,7 v40.6C238.4,685,235.2,688.2,231.3,688.2z"></path> <path class="st2" d="M362.5,560c-3.9,0-7-3.1-7-7v-52.2h-25.2c-3.9,0-7-3.1-7-7c0-3.9,3.1-7,7-7h32.2c3.9,0,7,3.1,7,7v59.2 C369.5,556.8,366.4,560,362.5,560z"></path> <path class="st2" d="M287.6,582.8c-3.9,0-7-3.1-7-7v-82.1c0-3.9,3.1-7,7-7h6.1c3.9,0,7,3.1,7,7c0,3.6-2.7,6.5-6.1,7v75.1 C294.6,579.7,291.4,582.8,287.6,582.8z"></path> <path class="st2" d="M362.5,688.2h-75c-3.9,0-7-3.1-7-7v-35.2c0-3.9,3.1-7,7-7s7,3.1,7,7v28.2h60.9v-37.2c0-3.9,3.1-7,7-7 c3.9,0,7,3.1,7,7v44.2C369.5,685,366.4,688.2,362.5,688.2z"></path> <path class="st2" d="M418.7,515c-3.9,0-7-3.1-7-7v-89.2c0-3.9,3.1-7,7-7h75c3.9,0,7,3.1,7,7v65.9c0,3.9-3.1,7-7,7c-3.9,0-7-3.1-7-7 v-58.8h-60.9V508C425.8,511.8,422.6,515,418.7,515z"></path> <path class="st2" d="M493.7,688.2h-75c-3.9,0-7-3.1-7-7v-89.2c0-3.9,3.1-7,7-7c3.9,0,7,3.1,7,7v82.2h60.9V551.5c0-3.9,3.1-7,7-7 c3.9,0,7,3.1,7,7v129.6C500.7,685,497.6,688.2,493.7,688.2z"></path> <path class="st2" d="M624.9,688.2h-75c-3.9,0-7-3.1-7-7V562.8c0-3.9,3.1-7,7-7c3.9,0,7,3.1,7,7v111.3h60.9V508.7c0-3.9,3.1-7,7-7 c3.9,0,7,3.1,7,7v172.4C631.9,685,628.8,688.2,624.9,688.2z"></path> <path class="st2" d="M549.9,500.1c-3.9,0-7-3.1-7-7V343.8c0-3.9,3.1-7,7-7h75c3.9,0,7,3.1,7,7v68.6c0,3.9-3.1,7-7,7 c-3.9,0-7-3.1-7-7v-61.6H557v142.2C557,496.9,553.8,500.1,549.9,500.1z"></path> <path class="st2" d="M681.1,219.6H578c-3.9,0-7-3.1-7-7V147c0-3.9,3.1-7,7-7h103.1c2.8,0,5.4,1.7,6.5,4.3c1.1,2.6,0.5,5.6-1.5,7.7 l-23.8,23.8l24.5,32.6c1.6,2.1,1.9,5,0.7,7.4C686.2,218.1,683.8,219.6,681.1,219.6z M585.1,205.6h82l-19.7-26.2 c-2.1-2.8-1.8-6.7,0.7-9.2l16.1-16.1h-79.1V205.6z"></path> <path class="st2" d="M578,350.8c-3.9,0-7-3.1-7-7V212.6c0-3.9,3.1-7,7-7c3.9,0,7,3.1,7,7v131.2C585.1,347.7,581.9,350.8,578,350.8z"></path> <path class="st2" d="M118.9,660c-2.7,0-5.3-1.6-6.5-4.3c-1.5-3.6,0.1-7.7,3.7-9.2l131.2-56.2c1.7-0.7,3.5-0.8,5.2-0.1l71.2,26.7 l137.4-110c1.6-1.3,3.7-1.8,5.8-1.4l89.9,18l62.9-67.8l56.2-60.5c2.6-2.8,7.1-3,9.9-0.4c2.8,2.6,3,7.1,0.4,9.9l-56.2,60.5L564.5,536 c-1.7,1.8-4.1,2.6-6.5,2.1L467.4,520l-138,110.4c-1.9,1.5-4.5,2-6.9,1.1l-72.3-27.1l-128.6,55.1C120.7,659.9,119.8,660,118.9,660z"></path> <path class="st2" d="M681.1,435.1c-3.9,0-7-3.1-7-7V407H653c-3.9,0-7-3.1-7-7s3.1-7,7-7h28.1c3.9,0,7,3.1,7,7v28.1 C688.2,432,685,435.1,681.1,435.1z"></path> <path class="st2" d="M362.5,341.4h-34.2c-2.8,0-5.7-0.5-8.5-1.4l-17-5.6c-3.7-1.2-5.7-5.2-4.5-8.9c1.2-3.7,5.2-5.7,8.9-4.5l17,5.6 c1.4,0.4,2.8,0.7,4.2,0.7h34.2c6.5,0,11.7-5.3,11.7-11.7s-5.3-11.7-11.7-11.7H325c-1.9,0-3.7-0.7-5-2.1l-9.2-9.2 c-2.7-2.7-2.7-7.2,0-9.9c2.7-2.7,7.2-2.7,9.9,0l7.1,7.1h34.6c14.2,0,25.8,11.6,25.8,25.8C388.3,329.9,376.7,341.4,362.5,341.4z"></path> <path class="st2" d="M330.3,500.7h-36.6c-1.9,0-3.8-0.8-5.1-2.2c-1.3-1.4-2-3.3-1.9-5.2l3-68.7c-8.4-1.4-24-4.3-40.6-8.9 c-23-6.3-39.7-13.7-49.9-21.9c-8.2-6.7-12.3-14.1-12.3-22c0-25.2,5.5-45.3,7.8-52.7c1.2-3.7,5.1-5.8,8.8-4.6 c3.7,1.2,5.8,5.1,4.6,8.8c-2.2,6.8-7.2,25.2-7.2,48.5c0,3.5,2.4,7.3,7.1,11.1c8.5,6.9,24,13.6,44.8,19.3c23.1,6.4,44.9,9.4,45.1,9.5 c3.6,0.5,6.2,3.6,6.1,7.3l-3,67.6h23.2l10.9-75.8c0.7-4.8-1.3-9.6-5.2-12.5l-65.7-49c-2.7-2-3.6-5.7-2.1-8.7 c0.1-0.1,6-12.4,12.4-27.8c11.8-28.7,14.8-43.2,15.3-50.4c0-0.1,0-0.1,0-0.2c0.1-0.6,0.1-1.3,0.1-2c0-19.9-26.2-31.3-34.5-31.3 c-10.4,0-43.7,14.3-86.9,37.3c-2.1,1.1-3.9,2.9-5.2,5.1l-28.9,50.1c-1.6,2.8-2,5.9-1.1,8.8c0,0.1,0,0.1,0,0.2 c0.8,3.1,2.8,5.6,5.5,7.1c3,1.7,6.7,2.1,10.2,1.2c3.3-1,6.1-3.2,7.8-6.4l21.5-38.8c0.8-1.4,2-2.5,3.5-3.1l46.9-18.7 c3.6-1.4,7.7,0.3,9.1,3.9c1.4,3.6-0.3,7.7-3.9,9.1l-44.5,17.8l-20.2,36.6c-3.5,6.4-9.3,11.1-16.3,13.1c0,0-0.1,0-0.1,0 c-7,1.9-14.6,1-20.7-2.4c-6-3.3-10.4-9-12.2-15.7c-1.9-6.5-1-13.7,2.5-19.7l28.9-50.1c2.6-4.5,6.3-8.1,10.8-10.5 c27.3-14.5,75.8-39,93.5-39c14.1,0,48.5,15.9,48.5,45.4c0,0.9,0,2.1-0.1,3.3c-0.8,11.9-6.3,30.3-16.3,54.7 c-4.1,9.8-7.9,18.2-10.2,23.3l61.1,45.6c8,6,12.1,15.9,10.7,25.7l-11.8,81.8C336.7,498.2,333.8,500.7,330.3,500.7z"></path> <path class="st2" d="M167.6,523.5c-6.6,0-13.2-2.4-18.4-7.1c-5.4-4.9-8.5-11.5-8.7-18.8c-0.3-7.3,2.3-14.2,7.3-19.4l29.6-31.3 l9.7-30.2c1.2-3.7,5.2-5.7,8.8-4.5c3.7,1.2,5.7,5.2,4.5,8.8l-10.2,31.7c-0.3,1-0.9,1.9-1.6,2.7L158,487.8c-2.3,2.5-3.5,5.7-3.4,9.3 c0.1,3.4,1.6,6.6,4.2,8.9c4.5,4.1,11.2,4.6,16.3,1.2l41.2-27.5l17.9-44.8c1.4-3.6,5.5-5.4,9.1-3.9c3.6,1.4,5.4,5.5,3.9,9.1 l-18.7,46.9c-0.5,1.3-1.4,2.4-2.6,3.2l-43,28.7C178.2,521.9,172.9,523.5,167.6,523.5z"></path> <path class="st2" d="M311.5,210.2c-14.3,0-27.2-5.7-36.2-16.2c-8.7-10-13.5-24.1-13.5-39.5c0-21.3,14.8-42.7,47.8-42.7 c17.3,0,41.2,18.6,41.2,53.6c0,17.3-7.7,28.1-14.1,34C329.5,206.1,319.9,210.2,311.5,210.2z M309.6,125.9 c-32.1,0-33.7,23.9-33.7,28.7c0,24.9,14.3,41.6,35.7,41.6c6.7,0,25.2-7.3,25.2-30.7C336.7,137.8,318.8,125.9,309.6,125.9z"></path> </svg> 