<?xml version="1.0" encoding="UTF-8"?> <svg xmlns="http://www.w3.org/2000/svg" id="a" viewBox="0 0 800 800"><path d="m681.13,146.99v140.56c0,15.56-12.56,28.11-28.11,28.11h-37.48l-15.27,38.14c-2.06,5.25-7.22,8.71-12.84,8.71s-10.78-3.47-12.84-8.71l-15.27-38.14h-131.19l-15.27,38.14c-2.06,5.25-7.22,8.71-12.84,8.71s-10.78-3.47-12.84-8.71l-15.27-38.14h-131.19l-15.27,38.14c-2.06,5.25-7.22,8.71-12.84,8.71s-10.78-3.47-12.84-8.71l-15.27-38.14h-37.48c-15.56,0-28.11-12.56-28.11-28.11v-140.56c0-15.56,12.56-28.11,28.11-28.11h506.03c15.56,0,28.11,12.56,28.11,28.11Z" style="fill:#fff; stroke-width:0px;"></path><circle cx="578.05" cy="456.23" r="46.85" style="fill:#fff; stroke-width:0px;"></circle><circle cx="400" cy="465.6" r="56.23" style="fill:#fff; stroke-width:0px;"></circle><circle cx="221.95" cy="456.23" r="46.85" style="fill:#fff; stroke-width:0px;"></circle><path d="m320.44,599.41c3.09,6.09,4.59,12.18,4.59,17.9,0,9.37-7.87,16.96-17.52,16.96h-21.74c6.93-12.65,18.74-25.02,34.67-34.86Z" style="fill:#f7941d; stroke-width:0px;"></path><path d="m514.23,634.27h-21.74c-9.65,0-17.52-7.59-17.52-16.96,0-5.72,1.5-11.81,4.59-17.9,15.93,9.84,27.74,22.21,34.67,34.86Z" style="fill:#f7941d; stroke-width:0px;"></path><path d="m578.05,549.93c63.44,0,103.08,38.33,103.08,67.38,0,9.37-7.87,16.96-17.52,16.96h-149.37c-6.93-12.65-18.74-25.02-34.67-34.86,5.72-11.9,17.05-23.9,32.89-33.08.37-.19.75-.37,1.12-.66,1.78-.94,3.56-1.87,5.53-2.81,2.25-1.12,4.5-2.16,6.93-3.19,7.4-3,15.46-5.44,24.18-7.12,2.9-.56,5.81-1.03,8.9-1.41,2.34-.37,4.78-.56,7.31-.75h.28c.94-.09,1.87-.19,2.81-.19.19-.09.28-.09.47,0,1.59-.19,3.19-.19,4.87-.19,1.03-.09,2.16-.09,3.19-.09Z" style="fill:#f7941d; stroke-width:0px;"></path><path d="m521.82,660.42c0,11.43-9.28,20.71-20.71,20.71h-202.22c-11.43,0-20.71-9.28-20.71-20.71,0-8.34,2.62-17.34,7.59-26.14h21.74c9.65,0,17.52-7.59,17.52-16.96,0-5.72-1.5-11.81-4.59-17.9,20.33-12.74,47.32-21.37,79.56-21.37s59.22,8.62,79.56,21.37c-3.09,6.09-4.59,12.18-4.59,17.9,0,9.37,7.87,16.96,17.52,16.96h21.74c4.97,8.81,7.59,17.8,7.59,26.14Z" style="fill:#f7941d; stroke-width:0px;"></path><path d="m230.86,550.21c.84,0,1.59.09,2.44.19h.28c2.53.19,4.97.37,7.31.75,3.09.37,6,.84,8.9,1.41,8.71,1.69,16.77,4.12,24.18,7.12,2.44,1.03,4.69,2.06,6.93,3.19,1.97.94,3.75,1.87,5.53,2.81.37.28.75.47,1.12.66,15.84,9.18,27.18,21.18,32.89,33.08-15.93,9.84-27.74,22.21-34.67,34.86h-149.37c-9.65,0-17.52-7.59-17.52-16.96,0-29.05,39.64-67.38,103.08-67.38,2.72,0,5.44.09,8.06.28.28-.09.56,0,.84,0Z" style="fill:#f7941d; stroke-width:0px;"></path><path d="m400,528.85c-34.88,0-63.25-28.38-63.25-63.25s28.38-63.25,63.25-63.25,63.25,28.38,63.25,63.25-28.38,63.25-63.25,63.25Zm0-112.45c-27.13,0-49.2,22.07-49.2,49.2s22.07,49.2,49.2,49.2,49.2-22.07,49.2-49.2-22.07-49.2-49.2-49.2Z" style="fill:#2a1a43; stroke-width:0px;"></path><path d="m578.05,510.11c-29.71,0-53.88-24.17-53.88-53.88s24.17-53.88,53.88-53.88,53.88,24.17,53.88,53.88-24.17,53.88-53.88,53.88Zm0-93.71c-21.96,0-39.83,17.87-39.83,39.83s17.87,39.83,39.83,39.83,39.83-17.87,39.83-39.83-17.87-39.83-39.83-39.83Z" style="fill:#2a1a43; stroke-width:0px;"></path><path d="m221.95,510.11c-29.71,0-53.88-24.17-53.88-53.88s24.17-53.88,53.88-53.88,53.88,24.17,53.88,53.88-24.17,53.88-53.88,53.88Zm0-93.71c-21.96,0-39.83,17.87-39.83,39.83s17.87,39.83,39.83,39.83,39.83-17.87,39.83-39.83-17.87-39.83-39.83-39.83Z" style="fill:#2a1a43; stroke-width:0px;"></path><path d="m501.11,688.15h-202.22c-15.29,0-27.74-12.44-27.74-27.74,0-9.5,2.94-19.74,8.5-29.6,7.83-14.28,20.67-27.23,37.09-37.38,23.42-14.67,52.21-22.42,83.27-22.42s59.87,7.76,83.29,22.44c16.39,10.12,29.23,23.07,37.1,37.44,5.52,9.78,8.46,20.02,8.46,29.52,0,15.29-12.44,27.74-27.74,27.74Zm-101.11-103.08c-28.42,0-54.64,7.02-75.83,20.29-.01,0-.03.02-.04.02-14.16,8.74-25.59,20.2-32.2,32.26-4.41,7.83-6.73,15.68-6.73,22.77,0,7.54,6.14,13.68,13.68,13.68h202.22c7.54,0,13.68-6.14,13.68-13.68,0-7.09-2.31-14.94-6.68-22.69-6.65-12.13-18.09-23.59-32.24-32.33-21.22-13.3-47.44-20.32-75.87-20.32Zm-79.56,14.34h.01-.01Z" style="fill:#2a1a43; stroke-width:0px;"></path><path d="m569.98,557.24c-3.51,0-6.55-2.63-6.97-6.21-.45-3.85,2.3-7.35,6.16-7.8,2-.24,3.88-.24,5.69-.24,3.88,0,7.03,3.15,7.03,7.03s-3.15,7.03-7.03,7.03c-1.54,0-2.87,0-4.05.14-.28.03-.56.05-.83.05Z" style="fill:#2a1a43; stroke-width:0px;"></path><path d="m566.7,557.43c-3.57,0-6.62-2.7-6.98-6.33-.39-3.86,2.43-7.31,6.29-7.69,1.04-.1,2.22-.22,3.51-.22,3.88,0,7.03,3.15,7.03,7.03s-3.15,7.03-7.03,7.03c-.59,0-1.33.07-2.11.15-.24.02-.47.04-.71.04Z" style="fill:#2a1a43; stroke-width:0px;"></path><path d="m550.21,559.59c-3.3,0-6.24-2.33-6.89-5.69-.74-3.81,1.75-7.5,5.56-8.24,3.15-.61,6.19-1.09,9.26-1.47,2.48-.39,4.89-.58,7.77-.8,3.88-.28,7.24,2.62,7.53,6.49.29,3.87-2.62,7.24-6.49,7.53-2.15.16-4.58.34-6.72.68-.09.01-.18.03-.26.04-2.79.34-5.54.77-8.41,1.33-.45.09-.9.13-1.34.13Z" style="fill:#2a1a43; stroke-width:0px;"></path><path d="m513.58,572.71c-2.53,0-4.97-1.36-6.22-3.75-1.81-3.43-.49-7.68,2.94-9.49,1.79-.94,3.64-1.92,5.72-2.91,2.32-1.16,4.7-2.25,7.28-3.34,3.57-1.51,7.7.16,9.21,3.73,1.51,3.57-.16,7.7-3.73,9.21-2.32.98-4.46,1.96-6.53,3-.04.02-.08.04-.12.06-1.85.88-3.59,1.8-5.28,2.69-1.04.55-2.16.81-3.27.81Z" style="fill:#2a1a43; stroke-width:0px;"></path><path d="m230.02,557.24c-.17,0-.34,0-.51-.02-2.45-.18-4.99-.26-7.56-.26-3.88,0-7.03-3.15-7.03-7.03s3.15-7.03,7.03-7.03c2.9,0,5.78.1,8.56.3,3.87.28,6.79,3.64,6.51,7.51-.26,3.7-3.35,6.53-7,6.53Z" style="fill:#2a1a43; stroke-width:0px;"></path><path d="m233.3,557.43c-.29,0-.59-.02-.88-.05-.55-.07-1.12-.13-1.56-.13-3.88,0-7.03-3.15-7.03-7.03s3.15-7.03,7.03-7.03c1.21,0,2.3.12,3.31.24,3.85.48,6.58,4,6.1,7.85-.44,3.56-3.47,6.16-6.96,6.16Z" style="fill:#2a1a43; stroke-width:0px;"></path><path d="m249.79,559.59c-.44,0-.89-.04-1.34-.13-2.87-.56-5.62-.99-8.41-1.33-.09-.01-.18-.02-.26-.04-2.14-.34-4.57-.52-6.72-.68-3.87-.29-6.78-3.66-6.49-7.53.29-3.87,3.65-6.77,7.53-6.49,2.88.21,5.29.41,7.77.8,3.08.38,6.11.86,9.26,1.47,3.81.74,6.3,4.42,5.56,8.24-.65,3.36-3.59,5.69-6.89,5.69Z" style="fill:#2a1a43; stroke-width:0px;"></path><path d="m286.42,572.71c-1.1,0-2.22-.26-3.27-.81-1.68-.89-3.43-1.8-5.28-2.69-.04-.02-.08-.04-.12-.06-2.07-1.04-4.21-2.02-6.53-3-3.57-1.51-5.25-5.64-3.73-9.21,1.51-3.58,5.64-5.25,9.21-3.73,2.58,1.09,4.96,2.18,7.28,3.34,2.08.99,3.93,1.97,5.72,2.91,3.43,1.81,4.75,6.06,2.94,9.49-1.26,2.39-3.7,3.75-6.22,3.75Z" style="fill:#2a1a43; stroke-width:0px;"></path><path d="m587.42,369.54c-8.5,0-16.28-5.29-19.38-13.17l-13.49-33.68h-121.68l-13.51,33.72c-3.08,7.84-10.87,13.13-19.36,13.13s-16.28-5.29-19.38-13.17l-13.49-33.68h-121.68l-13.51,33.72c-3.08,7.84-10.87,13.13-19.36,13.13s-16.28-5.29-19.38-13.17l-13.49-33.68h-32.73c-19.38,0-35.14-15.76-35.14-35.14v-140.56c0-19.38,15.76-35.14,35.14-35.14h506.03c19.38,0,35.14,15.76,35.14,35.14v140.56c0,19.38-15.76,35.14-35.14,35.14h-32.73l-13.51,33.72c-3.08,7.84-10.87,13.13-19.36,13.13Zm-159.3-60.91h131.19c2.87,0,5.46,1.75,6.52,4.42l15.27,38.14c1.02,2.59,3.55,4.3,6.31,4.3s5.3-1.71,6.3-4.26l15.29-38.18c1.07-2.67,3.65-4.42,6.52-4.42h37.48c11.63,0,21.08-9.46,21.08-21.08v-140.56c0-11.63-9.46-21.08-21.08-21.08H146.99c-11.63,0-21.08,9.46-21.08,21.08v140.56c0,11.63,9.46,21.08,21.08,21.08h37.48c2.87,0,5.46,1.75,6.52,4.42l15.27,38.14c1.02,2.59,3.55,4.3,6.31,4.3s5.3-1.71,6.3-4.26l15.29-38.18c1.07-2.67,3.65-4.42,6.52-4.42h131.19c2.87,0,5.46,1.75,6.52,4.42l15.27,38.14c1.02,2.59,3.55,4.3,6.31,4.3s5.3-1.71,6.3-4.26l15.29-38.18c1.07-2.67,3.65-4.42,6.52-4.42Z" style="fill:#2a1a43; stroke-width:0px;"></path><path d="m569.98,557.24c-.08,0-.15,0-.23,0-2.65.11-5.25-1.35-6.52-3.88-1.74-3.47-.33-7.69,3.14-9.43,2.18-1.09,4.58-1.09,6.76,0,3.47,1.74,4.88,5.96,3.14,9.43-1.23,2.46-3.71,3.89-6.29,3.89Z" style="fill:#2a1a43; stroke-width:0px;"></path><path d="m566.71,557.43h-.28c-3.88,0-7.03-3.15-7.03-7.03s3.15-7.03,7.03-7.03h.28c3.88,0,7.03,3.15,7.03,7.03s-3.15,7.03-7.03,7.03Z" style="fill:#2a1a43; stroke-width:0px;"></path><path d="m526.04,566.71c-2.78,0-5.41-1.66-6.52-4.39-1.46-3.6.28-7.7,3.88-9.15,8.08-3.27,16.65-5.8,25.48-7.51,3.81-.74,7.5,1.75,8.24,5.56.74,3.81-1.75,7.5-5.56,8.24-7.94,1.54-15.63,3.8-22.87,6.74-.86.35-1.76.52-2.64.52Z" style="fill:#2a1a43; stroke-width:0px;"></path><path d="m512.46,573.36c-2.58,0-5.06-1.43-6.29-3.89-1.73-3.47-.32-7.69,3.15-9.43.06-.03.13-.06.19-.09,3.1-2.2,7.41-1.55,9.7,1.51,2.33,3.11,1.69,7.51-1.41,9.84-.89.66-1.71,1.07-2.2,1.32-1.01.5-2.08.74-3.13.74Zm-3.09-13.31s0,0,0,0c0,0,0,0,0,0Z" style="fill:#2a1a43; stroke-width:0px;"></path><path d="m663.6,641.3h-104.3c-3.88,0-7.03-3.15-7.03-7.03s3.15-7.03,7.03-7.03h104.3c5.79,0,10.5-4.46,10.5-9.93,0-25.2-36.54-60.35-96.05-60.35-.9,0-1.84,0-2.55.06-3.86.35-7.28-2.5-7.64-6.36s2.5-7.28,6.36-7.64c1.35-.12,2.66-.12,3.82-.12,30.23,0,58.46,8.59,79.51,24.18,19.16,14.19,30.59,32.97,30.59,50.23,0,13.23-11.01,23.99-24.55,23.99Z" style="fill:#2a1a43; stroke-width:0px;"></path><path d="m230.01,557.24c-2.94,0-5.68-1.86-6.67-4.81-1.23-3.68.76-7.66,4.44-8.89,1.55-.52,2.87-.41,3.46-.35,3.7.2,6.64,3.27,6.64,7.02,0,4.02-3.42,7.21-7.45,7.02-.14,0-.28.01-.42.01Zm2.23-.36s0,0,0,0c0,0,0,0,0,0Zm-1.36-13.69h0,0Zm-.01,0h0,0Zm-.01,0h.01-.01Z" style="fill:#2a1a43; stroke-width:0px;"></path><path d="m233.57,557.43h-.28c-3.88,0-7.03-3.15-7.03-7.03s3.15-7.03,7.03-7.03h.28c3.88,0,7.03,3.15,7.03,7.03s-3.15,7.03-7.03,7.03Z" style="fill:#2a1a43; stroke-width:0px;"></path><path d="m273.96,566.71c-.88,0-1.77-.17-2.64-.52-7.24-2.93-14.94-5.2-22.87-6.74-3.81-.74-6.3-4.42-5.56-8.24.74-3.81,4.43-6.3,8.24-5.56,8.82,1.71,17.4,4.23,25.48,7.51,3.6,1.46,5.33,5.56,3.88,9.15-1.11,2.73-3.74,4.39-6.52,4.39Z" style="fill:#2a1a43; stroke-width:0px;"></path><path d="m287.54,573.36c-1.05,0-2.12-.24-3.13-.74-.49-.25-1.31-.66-2.2-1.32-3.11-2.33-3.74-6.73-1.41-9.84,2.29-3.06,6.6-3.72,9.7-1.51.06.03.13.06.19.09,3.47,1.73,4.88,5.95,3.15,9.43-1.23,2.47-3.71,3.89-6.29,3.89Zm3.09-13.31s0,0,0,0c0,0,0,0,0,0Z" style="fill:#2a1a43; stroke-width:0px;"></path><path d="m240.7,641.3h-104.3c-13.54,0-24.55-10.76-24.55-23.99,0-17.26,11.44-36.04,30.59-50.23,21.05-15.59,49.29-24.18,79.51-24.18,3.88,0,7.03,3.15,7.03,7.03s-3.15,7.03-7.03,7.03c-59.51,0-96.05,35.15-96.05,60.35,0,5.48,4.71,9.93,10.5,9.93h104.3c3.88,0,7.03,3.15,7.03,7.03s-3.15,7.03-7.03,7.03Z" style="fill:#2a1a43; stroke-width:0px;"></path></svg> 