<?xml version="1.0" encoding="UTF-8"?> <svg xmlns="http://www.w3.org/2000/svg" id="a" viewBox="0 0 800 800"><ellipse cx="221.95" cy="254.75" rx="37.48" ry="42.17" style="fill:#fff; stroke-width:0px;"></ellipse><path d="m446.85,320.44c0,13.31-23.61,23.06-28.11,28.02-30.73,34.48-61.29,60.91-74.97,60.91-6.28,0-22.02-5.62-37.48-11.9-18.92-7.69-37.48-16.22-37.48-16.22v271.75c0,7.03-2.34,18.74-18.74,18.74-21.08,0-22.3-21.08-32.8-140.56-22.3,135.31-25.77,140.56-42.17,140.56s-18.74-11.71-18.74-18.74,9.37-121.82,9.37-121.82v-103.08c0,84.91-12.27,93.71-28.11,93.71-13.68,0-18.74-10.03-18.74-28.11,0-4.69,4.13-38.05,4.13-44.51,0-2.53,1.02-27.65,2.15-54.63,1.69-38.89,33.64-69.53,72.53-69.53h52.76c12.09,0,23.99,2.81,34.77,8.15l20.71,10.41,37.86,18.92c44.51-37.11,65.69-56.23,84.34-56.23,6.94,0,11.34,1.68,14.15,4.03,3.66,3.09,4.59,7.22,4.59,10.12Z" style="fill:#f7941d; stroke-width:0px;"></path><path d="m306.29,437.48v-40.01c15.47,6.28,31.21,11.9,37.48,11.9,13.68,0,44.24-26.43,74.97-60.91,4.5-4.96,28.11-14.72,28.11-28.02,0-2.9-.93-7.03-4.59-10.12-2.81-2.34-7.21-4.03-14.15-4.03-18.65,0-39.83,19.12-84.34,56.23l-37.86-18.92.38-.75v-186.48h374.83v318.61h-374.83v-37.48Z" style="fill:#fff; stroke-width:0px;"></path><path d="m493.71,163.39c-3.88,0-7.03-3.15-7.03-7.03v-28.11c0-3.88,3.15-7.03,7.03-7.03s7.03,3.15,7.03,7.03v28.11c0,3.88-3.15,7.03-7.03,7.03Z" style="fill:#2a1a43; stroke-width:0px;"></path><path d="m634.27,678.78c-2.9,0-5.61-1.8-6.63-4.69l-56.23-159.3c-1.29-3.66.63-7.68,4.29-8.97,3.66-1.29,7.67.63,8.97,4.29l56.23,159.3c1.29,3.66-.63,7.68-4.29,8.97-.77.27-1.56.4-2.34.4Z" style="fill:#2a1a43; stroke-width:0px;"></path><path d="m353.15,678.78c-.78,0-1.57-.13-2.34-.4-3.66-1.29-5.58-5.31-4.29-8.97l56.23-159.3c1.29-3.66,5.31-5.58,8.97-4.29,3.66,1.29,5.58,5.31,4.29,8.97l-56.23,159.3c-1.02,2.89-3.73,4.69-6.63,4.69Z" style="fill:#2a1a43; stroke-width:0px;"></path><path d="m221.95,303.95c-24.54,0-44.51-22.07-44.51-49.2s19.97-49.2,44.51-49.2,44.51,22.07,44.51,49.2-19.97,49.2-44.51,49.2Zm0-84.34c-16.79,0-30.46,15.76-30.46,35.14s13.66,35.14,30.46,35.14,30.46-15.76,30.46-35.14-13.66-35.14-30.46-35.14Z" style="fill:#2a1a43; stroke-width:0px;"></path><path d="m250.07,678.78c-16.85,0-22.92-11.69-26.85-29.24-3.01-13.42-5.33-33.66-8.11-63.38-5.79,32.93-10.3,54.95-14.43,68.15-5.8,18.52-12.01,24.47-25.58,24.47-16.14,0-25.77-9.63-25.77-25.77,0-7.06,8.3-109.04,9.37-122.11v-140.28c0-3.88,3.15-7.03,7.03-7.03s7.03,3.15,7.03,7.03v140.56c0,.19,0,.38-.02.57-3.76,46.03-9.35,116.3-9.35,121.25,0,10.29,5.63,11.71,11.71,11.71,5.21,0,7.59,0,12.16-14.61,5.83-18.62,12.6-56.56,23.07-120.07.58-3.49,3.66-6.02,7.2-5.88,3.54.13,6.43,2.88,6.74,6.41l.89,10.19c4.78,54.49,7.66,87.38,11.77,105.7,4.09,18.26,8.48,18.26,13.14,18.26,6.08,0,11.71-1.42,11.71-11.71v-271.75c0-3.88,3.15-7.03,7.03-7.03s7.03,3.15,7.03,7.03v271.75c0,16.14-9.63,25.77-25.77,25.77Z" style="fill:#2a1a43; stroke-width:0px;"></path><path d="m137.62,528.85c-17.1,0-25.77-11.82-25.77-35.14,0-2.41.71-9.17,1.86-20,1.01-9.53,2.27-21.39,2.27-24.51,0-2.23.67-19.17,2.16-54.93,1.86-42.77,36.81-76.27,79.55-76.27h52.76c13.07,0,26.17,3.07,37.89,8.89l20.74,10.42,33.73,16.86c2.41-2.01,4.74-3.97,7.02-5.86,39.04-32.65,58.63-49.05,78.29-49.05,7.87,0,14.15,1.9,18.65,5.66,4.54,3.83,7.12,9.48,7.12,15.52,0,13.38-14.37,22.54-23.89,28.59-2.25,1.43-5.33,3.39-6.06,4.16-15.89,17.83-31.33,33.09-44.59,44.07-15.56,12.88-27.2,19.14-35.57,19.14-2.36,0-9.55,0-40.13-12.41-18.85-7.66-37.59-16.26-37.77-16.34-3.53-1.62-5.07-5.79-3.45-9.32,1.62-3.53,5.79-5.07,9.32-3.45.18.08,18.64,8.55,37.19,16.09,26.01,10.56,33.24,11.38,34.84,11.38,1.23,0,8.31-.77,26.61-15.91,12.73-10.53,27.63-25.28,43.11-42.65,1.96-2.15,5.04-4.12,8.95-6.61,6.07-3.87,17.38-11.06,17.38-16.74,0-1.11-.27-3.21-2.1-4.75-1.84-1.54-5.18-2.37-9.61-2.37-14.56,0-33.99,16.26-69.28,45.77-3.37,2.82-6.89,5.76-10.56,8.82-2.15,1.79-5.15,2.14-7.64.89l-37.86-18.92-20.72-10.41c-9.75-4.84-20.69-7.41-31.61-7.41h-52.76c-35.2,0-63.98,27.59-65.51,62.81-1.42,34.1-2.14,52.39-2.14,54.33,0,3.59-.93,12.63-2.35,26-.79,7.45-1.78,16.73-1.78,18.52,0,21.08,7.33,21.08,11.71,21.08,5.44,0,9.6-.76,13.46-10.56,5.13-13.03,7.63-37.93,7.63-76.12,0-3.88,3.15-7.03,7.03-7.03s7.03,3.15,7.03,7.03c0,84.68-12.35,100.74-35.14,100.74Z" style="fill:#2a1a43; stroke-width:0px;"></path><path d="m442.17,317.44c-1.8,0-3.6-.69-4.97-2.06-2.74-2.74-2.74-7.19,0-9.94l.09-.09c.36-.36.76-.68,1.18-.95l79.56-50.88c3.27-2.09,7.62-1.14,9.71,2.13,2.09,3.27,1.14,7.62-2.13,9.71l-79.13,50.61c-1.26.98-2.78,1.47-4.3,1.47Z" style="fill:#2a1a43; stroke-width:0px;"></path><path d="m681.13,481.99h-374.83c-3.88,0-7.03-3.15-7.03-7.03v-37.48c0-3.88,3.15-7.03,7.03-7.03s7.03,3.15,7.03,7.03v30.46h360.78V163.39h-360.78v133.53c0,3.88-3.15,7.03-7.03,7.03s-7.03-3.15-7.03-7.03v-140.56c0-3.88,3.15-7.03,7.03-7.03h374.83c3.88,0,7.03,3.15,7.03,7.03v318.61c0,3.88-3.15,7.03-7.03,7.03Z" style="fill:#2a1a43; stroke-width:0px;"></path></svg> 