<?xml version="1.0" encoding="UTF-8"?> <svg xmlns="http://www.w3.org/2000/svg" id="a" viewBox="0 0 800 800"><path d="m343.77,552.28l-9.75,16.4H118.87V156.36h562.25v412.32h-215.15l-9.75-16.4-4.41-1.59c2.07-5.34,2.34-11.16.66-16.49,1.59-.84,3-1.78,4.32-3h158.74c0-15.56,12.56-28.11,28.11-28.11V221.95c-15.56,0-28.11-12.56-28.11-28.11H185.22c0,15.56-12.56,28.11-28.11,28.11-.28,0-.48,0-.75-.09v281.31c.27-.09.47-.09.75-.09,15.56,0,28.11,12.56,28.11,28.11h154.62l2.34-.84c1.59,1.5,3.37,2.81,5.34,3.84-1.68,5.34-1.41,11.15.66,16.49l-4.41,1.59Z" style="fill:#fff; stroke-width:0px;"></path><path d="m334.03,568.68l9.75-16.4,4.41-1.59c1.21,2.9,2.99,5.72,5.43,8.15,6.65,6.65,16.12,8.71,24.64,6.09,4.13,7.78,12.28,13.12,21.74,13.12l-37.48,65.6-18.74-28.11h-37.48l27.74-46.85Z" style="fill:#40afe4; stroke-width:0px;"></path><path d="m465.6,512.45c0,7.59-3.47,14.34-8.8,18.74-1.32,1.22-2.73,2.16-4.32,3,1.68,5.34,1.41,11.15-.66,16.49-1.21,2.9-3.08,5.72-5.43,8.15-6.74,6.65-16.31,8.71-24.64,6.09-4.13,7.78-12.28,13.12-21.74,13.12s-17.62-5.34-21.74-13.12c-8.53,2.63-17.99.57-24.64-6.09-2.43-2.43-4.22-5.25-5.43-8.15-2.07-5.34-2.34-11.16-.66-16.49-1.98-1.03-3.75-2.34-5.34-3.84-4.78-4.4-7.78-10.78-7.78-17.9,0-9.46,5.34-17.62,13.12-21.74-2.63-8.43-.57-17.99,6.09-24.64,6.74-6.65,16.31-8.71,24.64-6.09,4.13-7.78,12.28-13.12,21.74-13.12s17.62,5.34,21.74,13.12c8.34-2.63,17.9-.57,24.64,6.09,6.65,6.74,8.71,16.22,6.09,24.64,7.78,4.13,13.12,12.28,13.12,21.74Zm-37.48,0c0-15.56-12.56-28.11-28.11-28.11s-28.11,12.56-28.11,28.11,12.56,28.11,28.11,28.11,28.11-12.56,28.11-28.11Z" style="fill:#40afe4; stroke-width:0px;"></path><path d="m465.97,568.68l27.74,46.85h-37.48l-18.74,28.11-37.48-65.6c9.46,0,17.62-5.34,21.74-13.12,8.34,2.63,17.9.57,24.64-6.09,2.34-2.43,4.22-5.25,5.43-8.15l4.41,1.59,9.75,16.4Z" style="fill:#40afe4; stroke-width:0px;"></path><polygon points="287.55 268.81 287.55 287.55 325.03 325.03 193.84 325.03 221.95 296.92 193.84 268.81 250.07 268.81 287.55 268.81" style="fill:#40afe4; stroke-width:0px;"></polygon><polygon points="578.05 296.92 606.16 325.03 474.97 325.03 512.45 287.55 512.45 268.81 549.93 268.81 606.16 268.81 578.05 296.92" style="fill:#40afe4; stroke-width:0px;"></polygon><polygon points="512.45 287.55 287.55 287.55 287.55 268.81 287.55 231.32 512.45 231.32 512.45 268.81 512.45 287.55" style="fill:#40afe4; stroke-width:0px;"></polygon><path d="m681.13,575.7h-168.68c-3.88,0-7.03-3.15-7.03-7.03s3.15-7.03,7.03-7.03h161.65V163.39H125.9v398.26h161.65c3.88,0,7.03,3.15,7.03,7.03s-3.15,7.03-7.03,7.03H118.87c-3.88,0-7.03-3.15-7.03-7.03V156.36c0-3.88,3.15-7.03,7.03-7.03h562.25c3.88,0,7.03,3.15,7.03,7.03v412.32c0,3.88-3.15,7.03-7.03,7.03Z" style="fill:#2a1a43; stroke-width:0px;"></path><path d="m615.53,538.22h-121.82c-3.88,0-7.03-3.15-7.03-7.03s3.15-7.03,7.03-7.03h115.5c2.8-13.75,13.66-24.6,27.41-27.41V228.28c-13.75-2.8-24.6-13.66-27.41-27.41H191.54c-2.85,14-14.05,25-28.16,27.55v268.19c14.1,2.55,25.3,13.55,28.16,27.55h114.75c3.88,0,7.03,3.15,7.03,7.03s-3.15,7.03-7.03,7.03h-121.07c-3.88,0-7.03-3.15-7.03-7.03,0-11.51-9.26-20.89-20.72-21.08-1.82.29-3.7-.14-5.22-1.24-1.83-1.32-2.92-3.44-2.92-5.7V221.86c0-2.26,1.09-4.38,2.92-5.7,1.52-1.09,3.4-1.53,5.21-1.24,11.5-.22,20.73-9.59,20.73-21.08,0-3.88,3.15-7.03,7.03-7.03h430.31c3.88,0,7.03,3.15,7.03,7.03,0,11.63,9.46,21.08,21.08,21.08,3.88,0,7.03,3.15,7.03,7.03v281.13c0,3.88-3.15,7.03-7.03,7.03-11.63,0-21.08,9.46-21.08,21.08,0,3.88-3.15,7.03-7.03,7.03Zm-456.95-28.38s0,0-.01,0c0,0,0,0,.01,0Zm-.01-294.65s0,0,.01,0c0,0,0,0-.01,0Z" style="fill:#2a1a43; stroke-width:0px;"></path><path d="m512.45,294.58h-224.9c-3.88,0-7.03-3.15-7.03-7.03v-56.23c0-3.88,3.15-7.03,7.03-7.03h224.9c3.88,0,7.03,3.15,7.03,7.03v56.23c0,3.88-3.15,7.03-7.03,7.03Zm-217.87-14.06h210.84v-42.17h-210.84v42.17Z" style="fill:#2a1a43; stroke-width:0px;"></path><path d="m606.16,332.06h-131.19c-2.84,0-5.4-1.71-6.49-4.34-1.09-2.63-.49-5.65,1.52-7.66l37.48-37.48c2.74-2.74,7.2-2.74,9.94,0,2.75,2.74,2.75,7.19,0,9.94l-25.49,25.49h97.26l-16.11-16.11c-2.75-2.74-2.75-7.19,0-9.94l16.11-16.11h-39.26c-3.88,0-7.03-3.15-7.03-7.03s3.15-7.03,7.03-7.03h56.23c2.84,0,5.4,1.71,6.49,4.34,1.09,2.63.49,5.65-1.52,7.66l-23.14,23.14,23.14,23.14c2.01,2.01,2.61,5.03,1.52,7.66-1.09,2.63-3.65,4.34-6.49,4.34Z" style="fill:#2a1a43; stroke-width:0px;"></path><path d="m325.03,332.06h-131.19c-2.84,0-5.4-1.71-6.49-4.34-1.09-2.63-.49-5.65,1.52-7.66l23.14-23.14-23.14-23.14c-2.01-2.01-2.61-5.03-1.52-7.66,1.09-2.63,3.65-4.34,6.49-4.34h56.23c3.88,0,7.03,3.15,7.03,7.03s-3.15,7.03-7.03,7.03h-39.26l16.11,16.11c2.75,2.74,2.75,7.19,0,9.94l-16.11,16.11h97.26l-25.49-25.49c-2.75-2.74-2.75-7.19,0-9.94,2.74-2.74,7.2-2.74,9.94,0l37.48,37.48c2.01,2.01,2.61,5.03,1.52,7.66-1.09,2.63-3.65,4.34-6.49,4.34Z" style="fill:#2a1a43; stroke-width:0px;"></path><path d="m456.23,369.54h-112.45c-3.88,0-7.03-3.15-7.03-7.03s3.15-7.03,7.03-7.03h112.45c3.88,0,7.03,3.15,7.03,7.03s-3.15,7.03-7.03,7.03Z" style="fill:#2a1a43; stroke-width:0px;"></path><path d="m587.42,481.99h-74.97c-3.88,0-7.03-3.15-7.03-7.03s3.15-7.03,7.03-7.03h74.97c3.88,0,7.03,3.15,7.03,7.03s-3.15,7.03-7.03,7.03Z" style="fill:#2a1a43; stroke-width:0px;"></path><path d="m287.55,481.99h-74.97c-3.88,0-7.03-3.15-7.03-7.03s3.15-7.03,7.03-7.03h74.97c3.88,0,7.03,3.15,7.03,7.03s-3.15,7.03-7.03,7.03Z" style="fill:#2a1a43; stroke-width:0px;"></path><path d="m493.71,416.4h-187.42c-3.88,0-7.03-3.15-7.03-7.03s3.15-7.03,7.03-7.03h187.42c3.88,0,7.03,3.15,7.03,7.03s-3.15,7.03-7.03,7.03Z" style="fill:#2a1a43; stroke-width:0px;"></path><path d="m400,547.59c-19.38,0-35.14-15.76-35.14-35.14s15.76-35.14,35.14-35.14,35.14,15.76,35.14,35.14-15.76,35.14-35.14,35.14Zm0-56.23c-11.63,0-21.08,9.46-21.08,21.08s9.46,21.08,21.08,21.08,21.08-9.46,21.08-21.08-9.46-21.08-21.08-21.08Z" style="fill:#2a1a43; stroke-width:0px;"></path><path d="m400,585.07c-9.89,0-19.06-4.6-25-12.28-9.62,1.24-19.36-1.99-26.36-8.99-2.96-2.96-5.3-6.47-6.95-10.42-.02-.05-.04-.11-.07-.17-1.97-5.1-2.64-10.55-1.98-15.79-.79-.61-1.55-1.27-2.29-1.97-6.33-5.83-9.99-14.24-9.99-23.01,0-9.89,4.59-19.05,12.27-24.99-1.25-9.61,1.98-19.35,9-26.37,7.11-7.02,16.84-10.24,26.37-9,5.94-7.67,15.1-12.26,24.99-12.26s19.05,4.59,24.99,12.26c9.54-1.24,19.25,1.98,26.33,8.97,7.03,7.12,10.25,16.85,9.03,26.4,7.68,5.94,12.27,15.11,12.27,25,0,9.34-4.08,18.09-11.21,24.04-.35.32-.7.62-1.07.92.67,5.25,0,10.71-1.97,15.81-.02.06-.04.11-.07.17-1.54,3.7-3.91,7.27-6.85,10.33-.04.04-.08.09-.13.13-7.09,6.99-16.81,10.21-26.33,8.97-5.94,7.67-15.1,12.26-24.99,12.26Zm-21.74-27.18c2.55,0,4.96,1.39,6.21,3.74,3.07,5.79,9.03,9.39,15.54,9.39s12.46-3.6,15.54-9.39c1.59-2.99,5.09-4.43,8.32-3.41,6.12,1.93,12.83.27,17.53-4.32,1.69-1.77,3.04-3.79,3.91-5.83,1.48-3.87,1.65-8.05.48-11.75-1.02-3.24.42-6.74,3.42-8.33,1.17-.62,2.04-1.22,2.84-1.95.1-.09.2-.18.3-.26,3.97-3.28,6.25-8.13,6.25-13.32,0-6.51-3.6-12.46-9.39-15.53-2.99-1.58-4.42-5.07-3.42-8.3,1.93-6.18.25-12.93-4.38-17.62-4.64-4.57-11.38-6.25-17.53-4.32-3.23,1.02-6.73-.41-8.32-3.41-3.07-5.79-9.03-9.39-15.54-9.39s-12.46,3.6-15.54,9.39c-1.59,2.99-5.09,4.43-8.32,3.41-6.15-1.94-12.89-.26-17.6,4.39-4.59,4.59-6.25,11.32-4.31,17.55,1.01,3.23-.43,6.71-3.42,8.3-5.79,3.07-9.39,9.03-9.39,15.53,0,4.86,2.01,9.5,5.51,12.73,1.25,1.18,2.52,2.09,3.84,2.78,3.02,1.58,4.47,5.09,3.44,8.34-1.17,3.71-1,7.88.48,11.76.93,2.22,2.24,4.17,3.87,5.8,4.6,4.6,11.35,6.27,17.61,4.34.69-.21,1.38-.31,2.07-.31Zm73.56-7.21h.01-.01Z" style="fill:#2a1a43; stroke-width:0px;"></path><path d="m437.48,650.67c-.08,0-.16,0-.24,0-2.44-.08-4.65-1.42-5.86-3.54l-37.48-65.6c-1.93-3.37-.75-7.66,2.61-9.59,3.37-1.93,7.66-.75,9.59,2.61l31.84,55.72,12.43-18.65c1.3-1.96,3.5-3.13,5.85-3.13h25.16l-21.46-36.25-9.74-16.39c-1.98-3.34-.89-7.65,2.45-9.63,3.34-1.98,7.65-.88,9.63,2.45l9.75,16.4,27.74,46.86c1.29,2.17,1.31,4.87.06,7.06-1.25,2.19-3.58,3.55-6.11,3.55h-33.72l-16.66,24.98c-1.31,1.96-3.5,3.13-5.85,3.13Z" style="fill:#2a1a43; stroke-width:0px;"></path><path d="m362.52,650.67c-2.34,0-4.54-1.17-5.85-3.13l-16.66-24.98h-33.72c-2.52,0-4.85-1.35-6.11-3.55-1.25-2.19-1.23-4.89.06-7.06l27.74-46.85,9.75-16.41c1.98-3.34,6.3-4.43,9.63-2.45,3.34,1.98,4.43,6.3,2.45,9.63l-9.75,16.4-21.45,36.24h25.16c2.35,0,4.54,1.17,5.85,3.13l12.43,18.65,31.84-55.72c1.93-3.37,6.22-4.54,9.59-2.61,3.37,1.93,4.54,6.22,2.61,9.59l-37.48,65.6c-1.21,2.11-3.42,3.45-5.86,3.54-.08,0-.16,0-.24,0Z" style="fill:#2a1a43; stroke-width:0px;"></path></svg> 