<?xml version="1.0" encoding="UTF-8"?> <svg xmlns="http://www.w3.org/2000/svg" id="a" viewBox="0 0 800 800"><path d="m665.6,549.93c20.7,20.71,20.7,54.26,0,74.97h-40.67c20.7-20.71,20.7-54.26,0-74.97h40.67Z" style="fill:#fff; stroke-width:0px;"></path><path d="m634.3,474.96c-20.72,20.71-20.72,54.26,0,74.97h-46.85c20.7,20.71,20.7,54.26,0,74.97h-243.64c20.7-20.71,20.7-54.26,0-74.97h103.08c-20.72-20.71-20.72-54.26,0-74.97h187.42Zm-84.34,112.45v-74.97h-56.23v74.97l28.11-18.74,28.11,18.74Z" style="fill:#fff; stroke-width:0px;"></path><path d="m581.26,400c20.7,20.71,20.7,54.26,0,74.97h-40.67c20.7-20.71,20.7-54.26,0-74.97h40.67Z" style="fill:#fff; stroke-width:0px;"></path><path d="m400.03,474.96h46.85c-20.72,20.71-20.72,54.26,0,74.97h-56.23c-20.72-20.71-20.72-54.26,0-74.97h9.37Z" style="fill:#fff; stroke-width:0px;"></path><path d="m343.81,549.93c20.7,20.71,20.7,54.26,0,74.97H118.91c20.7-20.71,20.7-54.26,0-74.97h224.9Z" style="fill:#fff; stroke-width:0px;"></path><path d="m400.03,400c20.7,20.71,20.7,54.26,0,74.97h-187.42c20.7-20.71,20.7-54.26,0-74.97h187.42Z" style="fill:#fff; stroke-width:0px;"></path><path d="m624.93,549.93c20.7,20.71,20.7,54.26,0,74.97h-37.48c20.7-20.71,20.7-54.26,0-74.97h37.48Z" style="fill:#8fca73; stroke-width:0px;"></path><polygon points="549.97 512.45 549.97 587.41 521.85 568.67 493.74 587.41 493.74 512.45 549.97 512.45" style="fill:#8fca73; stroke-width:0px;"></polygon><path d="m212.62,474.96h178.05c-20.72,20.71-20.72,54.26,0,74.97h-209.34c-20.72-20.71-20.72-54.26,0-74.97h31.3Z" style="fill:#8fca73; stroke-width:0px;"></path><path d="m540.6,400c20.7,20.71,20.7,54.26,0,74.97h-140.56c20.7-20.71,20.7-54.26,0-74.97h140.56Z" style="fill:#8fca73; stroke-width:0px;"></path><path d="m435.36,222.32h-.09c-18.38,6.56-38.61,5.34-55.95-3.56-17.33-8.9-30.26-24.55-35.51-43.2,37.1-3.65,72.9,14.62,91.55,46.76Z" style="fill:#8fca73; stroke-width:0px;"></path><path d="m475,250.06c30.46,0,46.85,25.77,46.85,56.23,0,39.27-31.02,93.71-65.6,93.71h-56.23c-34.58,0-65.6-54.44-65.6-93.71,0-30.46,16.4-56.23,46.85-56.23s28.11,9.37,46.85,9.37h.09c18.65,0,16.4-9.37,46.76-9.37Z" style="fill:#fff; stroke-width:0px;"></path><path d="m343.81,631.92c-1.8,0-3.6-.69-4.97-2.06-2.75-2.74-2.75-7.19,0-9.94,17.92-17.93,17.92-47.1,0-65.03-2.74-2.75-2.74-7.2,0-9.94,2.74-2.74,7.19-2.74,9.94,0,23.4,23.41,23.4,61.5,0,84.9-1.37,1.37-3.17,2.06-4.97,2.06Z" style="fill:#2a1a43; stroke-width:0px;"></path><path d="m665.6,631.92H118.91c-2.84,0-5.4-1.71-6.49-4.34-1.09-2.63-.49-5.65,1.52-7.66,17.92-17.93,17.92-47.1,0-65.03-2.01-2.01-2.61-5.03-1.52-7.66,1.09-2.63,3.65-4.34,6.49-4.34h337.35c3.88,0,7.03,3.15,7.03,7.03s-3.15,7.03-7.03,7.03H133.17c11.01,18.72,11.01,42.19,0,60.91h529.4c15.34-17.34,15.34-43.57,0-60.91h-75.12c-3.88,0-7.03-3.15-7.03-7.03s3.15-7.03,7.03-7.03h78.15c1.86,0,3.65.74,4.97,2.06,23.4,23.41,23.4,61.5,0,84.9-1.32,1.32-3.11,2.06-4.97,2.06Z" style="fill:#2a1a43; stroke-width:0px;"></path><path d="m181.32,556.96c-1.8,0-3.6-.69-4.97-2.06-11.35-11.34-17.6-26.42-17.6-42.45s6.25-31.11,17.6-42.45c1.32-1.32,3.11-2.06,4.97-2.06h452.99c3.88,0,7.03,3.15,7.03,7.03s-3.15,7.03-7.03,7.03H184.35c-7.46,8.41-11.54,19.12-11.54,30.46,0,12.28,4.79,23.82,13.48,32.51,2.75,2.74,2.75,7.19,0,9.94-1.37,1.37-3.17,2.06-4.97,2.06Z" style="fill:#2a1a43; stroke-width:0px;"></path><path d="m446.89,556.96c-1.8,0-3.6-.69-4.97-2.06-11.35-11.34-17.6-26.42-17.6-42.45s6.25-31.11,17.6-42.45c2.74-2.74,7.19-2.74,9.94,0,2.74,2.75,2.74,7.2,0,9.94-8.69,8.69-13.48,20.24-13.48,32.51s4.79,23.82,13.48,32.51c2.75,2.74,2.75,7.19,0,9.94-1.37,1.37-3.17,2.06-4.97,2.06Z" style="fill:#2a1a43; stroke-width:0px;"></path><path d="m634.3,556.96c-1.8,0-3.6-.69-4.97-2.06-11.35-11.34-17.6-26.42-17.6-42.45s6.25-31.11,17.6-42.45c2.75-2.74,7.2-2.74,9.94,0s2.74,7.2,0,9.94c-8.69,8.69-13.48,20.24-13.48,32.51s4.79,23.82,13.48,32.51c2.75,2.74,2.75,7.19,0,9.94-1.37,1.37-3.17,2.06-4.97,2.06Z" style="fill:#2a1a43; stroke-width:0px;"></path><path d="m325.07,519.47h-112.45c-3.88,0-7.03-3.15-7.03-7.03s3.15-7.03,7.03-7.03h112.45c3.88,0,7.03,3.15,7.03,7.03s-3.15,7.03-7.03,7.03Z" style="fill:#fff; stroke-width:0px;"></path><path d="m549.97,594.44c-1.36,0-2.72-.4-3.9-1.18l-24.21-16.14-24.21,16.14c-2.16,1.44-4.93,1.57-7.21.35-2.29-1.22-3.71-3.6-3.71-6.2v-74.97c0-3.88,3.15-7.03,7.03-7.03h56.23c3.88,0,7.03,3.15,7.03,7.03v74.97c0,2.59-1.43,4.97-3.71,6.2-1.04.56-2.18.83-3.32.83Zm-28.11-32.8c1.36,0,2.72.39,3.9,1.18l17.19,11.46v-54.81h-42.17v54.81l17.19-11.46c1.18-.79,2.54-1.18,3.9-1.18Z" style="fill:#2a1a43; stroke-width:0px;"></path><path d="m212.62,481.99c-1.8,0-3.6-.69-4.97-2.06-2.75-2.74-2.75-7.19,0-9.94,17.92-17.93,17.92-47.1,0-65.03-2.74-2.75-2.74-7.2,0-9.94,2.74-2.74,7.19-2.74,9.94,0,23.4,23.41,23.4,61.5,0,84.9-1.37,1.37-3.17,2.06-4.97,2.06Z" style="fill:#2a1a43; stroke-width:0px;"></path><path d="m400.03,481.99c-1.8,0-3.6-.69-4.97-2.06-2.75-2.74-2.75-7.19,0-9.94,17.92-17.93,17.92-47.1,0-65.03-2.74-2.75-2.74-7.2,0-9.94,2.74-2.74,7.19-2.74,9.94,0,23.4,23.41,23.4,61.5,0,84.9-1.37,1.37-3.17,2.06-4.97,2.06Z" style="fill:#2a1a43; stroke-width:0px;"></path><path d="m581.26,481.99c-1.8,0-3.6-.69-4.97-2.06-2.75-2.74-2.75-7.19,0-9.94,17.25-17.26,17.9-44.93,1.94-62.97H212.62c-3.88,0-7.03-3.15-7.03-7.03s3.15-7.03,7.03-7.03h368.65c1.86,0,3.65.74,4.97,2.06,23.4,23.41,23.4,61.5,0,84.9-1.37,1.37-3.17,2.06-4.97,2.06Z" style="fill:#2a1a43; stroke-width:0px;"></path><path d="m521.85,444.51h-65.6c-3.88,0-7.03-3.15-7.03-7.03s3.15-7.03,7.03-7.03h65.6c3.88,0,7.03,3.15,7.03,7.03s-3.15,7.03-7.03,7.03Z" style="fill:#fff; stroke-width:0px;"></path><path d="m456.26,407.02c-3.88,0-7.03-3.15-7.03-7.03s3.15-7.03,7.03-7.03c13.35,0,27.88-10.55,39.88-28.94,11.53-17.68,18.69-39.8,18.69-57.74,0-24.49-12.31-49.2-39.83-49.2-15.56,0-21.35,2.52-26.94,4.95-5,2.17-10.16,4.42-19.82,4.42s-14.96-2.25-19.97-4.42c-5.59-2.43-11.38-4.95-26.98-4.95-27.51,0-39.83,24.71-39.83,49.2,0,17.94,7.16,40.06,18.69,57.74,11.99,18.39,26.53,28.94,39.88,28.94,3.88,0,7.03,3.15,7.03,7.03s-3.15,7.03-7.03,7.03c-18.19,0-37.02-12.87-51.65-35.32-13.13-20.14-20.97-44.59-20.97-65.42,0-17,4.78-32.57,13.47-43.83,9.8-12.71,23.78-19.43,40.41-19.43,18.53,0,26.32,3.39,32.59,6.11,4.35,1.89,7.49,3.26,14.27,3.26s9.96-1.37,14.31-3.25c6.27-2.72,14.06-6.12,32.55-6.12,16.63,0,30.61,6.72,40.41,19.43,8.69,11.26,13.47,26.82,13.47,43.83,0,20.83-7.84,45.28-20.97,65.42-14.64,22.45-33.46,35.32-51.65,35.32Z" style="fill:#2a1a43; stroke-width:0px;"></path><path d="m378.2,340.3c-2.74,0-5.35-1.62-6.48-4.31-4.53-10.78-6.83-20.78-6.83-29.71,0-3.05.31-10.78,3.22-16.82,1.68-3.5,5.88-4.97,9.38-3.28,3.5,1.68,4.97,5.88,3.28,9.38-1.35,2.81-1.83,7.53-1.83,10.72,0,6.95,1.98,15.34,5.73,24.26,1.5,3.58-.18,7.7-3.76,9.2-.89.37-1.81.55-2.72.55Z" style="fill:#2a1a43; stroke-width:0px;"></path><path d="m428.24,266.46c-.09,0-.17,0-.26,0-3.88-.14-6.91-3.4-6.77-7.28.5-13.61,3-26.81,7.43-39.22,1.31-3.66,5.33-5.56,8.98-4.25,3.66,1.31,5.56,5.33,4.25,8.98-3.95,11.05-6.18,22.83-6.62,35-.14,3.79-3.26,6.77-7.02,6.77Z" style="fill:#2a1a43; stroke-width:0px;"></path><path d="m435.36,229.35c-.77,0-1.55-.13-2.32-.4-3.66-1.28-5.59-5.29-4.31-8.95,4.94-14.12,12.37-27.32,22.09-39.23,2.45-3.01,6.88-3.45,9.89-1,3.01,2.45,3.46,6.88,1,9.89-8.68,10.64-15.31,22.41-19.71,34.99-1.01,2.9-3.73,4.71-6.63,4.71Z" style="fill:#2a1a43; stroke-width:0px;"></path><path d="m435.36,229.35c-2.42,0-4.78-1.25-6.09-3.5-17.22-29.68-50.5-46.67-84.78-43.3-3.86.38-7.3-2.44-7.68-6.31-.38-3.86,2.44-7.3,6.31-7.68,39.74-3.91,78.34,15.8,98.32,50.23,1.95,3.36.81,7.66-2.55,9.61-1.11.64-2.32.95-3.52.95Z" style="fill:#2a1a43; stroke-width:0px;"></path><path d="m411.37,233.48c-12.19,0-24.32-2.85-35.26-8.47-19.08-9.8-33.32-27.14-39.06-47.55-1.05-3.74,1.13-7.62,4.86-8.67,3.74-1.05,7.62,1.13,8.67,4.86,4.69,16.67,16.33,30.83,31.95,38.85,15.46,7.94,33.82,9.1,50.38,3.19.76-.27,1.56-.41,2.36-.41,3.88,0,7.07,3.15,7.07,7.03,0,3.29-2.23,6.06-5.28,6.82-8.33,2.9-17.03,4.34-25.69,4.34Z" style="fill:#2a1a43; stroke-width:0px;"></path></svg> 