<?xml version="1.0" encoding="UTF-8"?> <svg xmlns="http://www.w3.org/2000/svg" id="a" viewBox="0 0 800 800"><circle cx="400" cy="400" r="224.9" style="fill:#fff; stroke-width:0px;"></circle><path d="m400,540.56l-46.85,65.6,46.85,74.97c-155.28,0-281.13-125.85-281.13-281.13l74.97-46.85,65.6,46.85c0,77.59,62.97,140.56,140.56,140.56Z" style="fill:#fff; stroke-width:0px;"></path><path d="m681.13,400l-74.97,46.85-65.6-46.85c0-77.59-62.97-140.56-140.56-140.56l46.85-65.6-46.85-74.97c155.28,0,281.13,125.85,281.13,281.13Z" style="fill:#fff; stroke-width:0px;"></path><path d="m606.16,446.85l74.97-46.85c0,155.28-125.85,281.13-281.13,281.13l-46.85-74.97,46.85-65.6c77.59,0,140.56-62.97,140.56-140.56l65.6,46.85Z" style="fill:#8885c4; stroke-width:0px;"></path><path d="m400,118.87l46.85,74.97-46.85,65.6c-77.59,0-140.56,62.97-140.56,140.56l-65.6-46.85-74.97,46.85c0-155.28,125.85-281.13,281.13-281.13Z" style="fill:#8885c4; stroke-width:0px;"></path><path d="m268.81,285.21c-3.88,0-7.03-3.15-7.03-7.03v-58l-6.74,6.74c-2.74,2.74-7.2,2.74-9.94,0-2.75-2.74-2.75-7.19,0-9.94l18.74-18.74c2.01-2.01,5.03-2.61,7.66-1.52,2.63,1.09,4.34,3.65,4.34,6.49v74.97c0,3.88-3.15,7.03-7.03,7.03Z" style="fill:#fff; stroke-width:0px;"></path><path d="m587.42,313.32h-37.48c-2.66,0-5.1-1.5-6.29-3.89-1.19-2.38-.93-5.23.66-7.36l33.73-44.98c1.54-2.1,2.34-4.48,2.34-7.03,0-6.46-5.26-11.71-11.71-11.71s-11.71,5.25-11.71,11.71c0,3.88-3.15,7.03-7.03,7.03s-7.03-3.15-7.03-7.03c0-14.21,11.56-25.77,25.77-25.77s25.77,11.56,25.77,25.77c0,5.53-1.77,10.86-5.11,15.41l-25.34,33.79h23.43c3.88,0,7.03,3.15,7.03,7.03s-3.15,7.03-7.03,7.03Z" style="fill:#2a1a43; stroke-width:0px;"></path><path d="m250.07,547.59h-37.48c-2.11,0-4.1-.94-5.43-2.57s-1.87-3.77-1.46-5.83l9.37-46.85c.76-3.81,4.47-6.27,8.27-5.51,3.81.76,6.27,4.46,5.51,8.27l-7.69,38.45h28.91c3.88,0,7.03,3.15,7.03,7.03s-3.15,7.03-7.03,7.03Z" style="fill:#2a1a43; stroke-width:0px;"></path><path d="m250.07,575.7c-3.88,0-7.03-3.15-7.03-7.03v-65.6c0-3.88,3.15-7.03,7.03-7.03s7.03,3.15,7.03,7.03v65.6c0,3.88-3.15,7.03-7.03,7.03Z" style="fill:#2a1a43; stroke-width:0px;"></path><path d="m521.82,575.7c-3.88,0-7.03-3.15-7.03-7.03s3.15-7.03,7.03-7.03c6.46,0,11.71-5.25,11.71-11.71s-5.26-11.71-11.71-11.71-11.71,5.25-11.71,11.71c0,3.88-3.15,7.03-7.03,7.03s-7.03-3.15-7.03-7.03c0-14.21,11.56-25.77,25.77-25.77s25.77,11.56,25.77,25.77-11.56,25.77-25.77,25.77Z" style="fill:#fff; stroke-width:0px;"></path><path d="m521.82,613.19c-14.21,0-25.77-11.56-25.77-25.77,0-3.88,3.15-7.03,7.03-7.03s7.03,3.15,7.03,7.03c0,6.46,5.26,11.71,11.71,11.71s11.71-5.25,11.71-11.71-5.26-11.71-11.71-11.71c-3.88,0-7.03-3.15-7.03-7.03s3.15-7.03,7.03-7.03c14.21,0,25.77,11.56,25.77,25.77s-11.56,25.77-25.77,25.77Z" style="fill:#fff; stroke-width:0px;"></path><path d="m688.15,400c0-76.98-29.97-149.34-84.39-203.76-54.36-54.36-126.63-84.33-203.52-84.39,0,0,0,0,0,0-.08,0-.16,0-.24,0-76.98,0-149.34,29.97-203.76,84.39-54.42,54.42-84.39,126.79-84.39,203.76s29.97,149.34,84.39,203.76c54.42,54.42,126.78,84.39,203.75,84.39,0,0,.01,0,.02,0s.01,0,.02,0c76.96,0,149.32-29.98,203.73-84.39,54.42-54.42,84.39-126.79,84.39-203.76Zm-14.1-3.87l-67.63,42.27-58.87-42.05c-1.84-75.27-60.3-136.73-134.32-143.34l39.34-55.08c1.65-2.31,1.75-5.4.24-7.81l-39.94-63.91c68.39,3.14,132.23,31.25,180.95,79.97,50.85,50.85,79.24,118.18,80.23,189.96Zm-274.05,137.4c-73.63,0-133.53-59.9-133.53-133.53s59.9-133.53,133.52-133.53c0,0,0,0,0,0,0,0,0,0,0,0,73.63,0,133.53,59.9,133.53,133.53s-59.9,133.53-133.53,133.53ZM206.18,206.18c50.85-50.85,118.18-79.24,189.95-80.23l42.27,67.63-42.05,58.88c-75.27,1.84-136.73,60.3-143.34,134.32l-55.08-39.34c-2.31-1.65-5.4-1.75-7.81-.24l-63.91,39.94c3.14-68.39,31.25-132.23,79.97-180.95Zm-80.23,197.69l67.63-42.27,58.87,42.05c1.84,75.27,60.3,136.73,134.32,143.34l-39.34,55.08c-1.65,2.31-1.75,5.4-.24,7.81l39.94,63.91c-68.39-3.14-132.23-31.25-180.95-79.97-50.85-50.85-79.24-118.18-80.23-189.96Zm277.92,270.18l-42.27-67.63,42.05-58.87c75.27-1.84,136.73-60.3,143.34-134.32l55.08,39.34c1.22.87,2.65,1.31,4.08,1.31,1.29,0,2.58-.35,3.72-1.07l63.91-39.94c-3.14,68.39-31.25,132.23-79.97,180.95-50.85,50.85-118.18,79.24-189.96,80.23Z" style="fill:#2a1a43; stroke-width:0px;"></path></svg> 