<?xml version="1.0" encoding="UTF-8"?> <svg xmlns="http://www.w3.org/2000/svg" id="a" viewBox="0 0 800 800"><polygon points="606.16 308.17 560.52 326.44 532.22 337.77 400 390.63 267.78 337.77 118.87 278.18 400 165.73 681.13 278.18 634.27 296.92 606.16 308.17" style="fill:#40afe4; stroke-width:0px;"></polygon><path d="m620.21,503.08l14.06,121.82c-8.35,6.28-18.28,9.37-28.11,9.37s-19.77-3.09-28.11-9.37l14.06-121.82c4.59,1.32,9.37,1.88,14.06,1.88s9.46-.56,14.06-1.88Z" style="fill:#fff; stroke-width:0px;"></path><path d="m624.9,477.49c0,16.68-4.69,25.59-4.69,25.59-4.59,1.32-9.37,1.88-14.06,1.88s-9.46-.56-14.06-1.88c0,0-4.69-8.9-4.69-25.59,0-10.58,7.6-21.27,18.74-21.27s18.74,10.69,18.74,21.27Z" style="fill:#fff; stroke-width:0px;"></path><path d="m540.56,371.89l18.74,103.08c-46.67,37.11-102.99,56.23-159.3,56.23s-112.63-19.21-159.3-56.23l18.74-103.08,8.35-34.12,132.22,52.86,132.22-52.86,8.35,34.12Z" style="fill:#40afe4; stroke-width:0px;"></path><path d="m400,397.66c-.89,0-1.77-.17-2.61-.5l-132.22-52.86-148.91-59.59c-2.67-1.07-4.42-3.65-4.42-6.53,0-2.87,1.75-5.46,4.42-6.52l281.13-112.45c1.68-.67,3.54-.67,5.22,0l281.13,112.45c2.67,1.07,4.42,3.65,4.42,6.53s-1.75,5.46-4.42,6.53l-46.85,18.74c-3.6,1.44-7.69-.31-9.14-3.92-1.44-3.6.31-7.69,3.92-9.14l30.54-12.22-262.2-104.88-262.21,104.88,132.6,53.07,129.61,51.81,129.61-51.81,28.3-11.33c3.6-1.44,7.69.31,9.14,3.91,1.44,3.6-.31,7.69-3.91,9.14l-28.3,11.33-132.22,52.86c-.84.33-1.72.5-2.61.5Z" style="fill:#2a1a43; stroke-width:0px;"></path><path d="m400,538.22c-58.59,0-116.72-20.51-163.67-57.75-2.03-1.61-3.01-4.21-2.55-6.76l18.74-103.08c.69-3.82,4.35-6.35,8.17-5.66,3.82.69,6.35,4.35,5.66,8.17l-17.98,98.9c43.88,33.64,97.56,52.12,151.63,52.12s107.85-18.48,151.63-52.12l-17.98-98.9c-.69-3.82,1.84-7.48,5.66-8.17,3.82-.7,7.48,1.84,8.17,5.66l18.74,103.08c.46,2.55-.51,5.15-2.54,6.76-46.84,37.24-104.97,57.75-163.68,57.75Z" style="fill:#2a1a43; stroke-width:0px;"></path><path d="m606.16,511.98c-5.64,0-11.02-.72-15.99-2.15-3.73-1.07-5.89-4.96-4.82-8.69,1.07-3.73,4.96-5.89,8.69-4.82,3.71,1.06,7.79,1.6,12.12,1.6s8.41-.54,12.12-1.6c3.73-1.07,7.62,1.09,8.69,4.82,1.07,3.73-1.09,7.62-4.82,8.69-4.97,1.43-10.35,2.15-15.99,2.15Z" style="fill:#2a1a43; stroke-width:0px;"></path><path d="m606.16,641.3c-11.61,0-23.09-3.83-32.34-10.78-1.99-1.5-3.04-3.94-2.76-6.42l13.84-119.91c-1.6-3.93-4.51-12.95-4.51-26.7,0-17.48,13.38-28.3,25.77-28.3s25.77,10.82,25.77,28.3c0,13.74-2.91,22.76-4.51,26.7l13.84,119.91c.29,2.48-.76,4.92-2.76,6.42-9.24,6.95-20.73,10.78-32.34,10.78Zm-20.64-19.82c6.18,3.74,13.38,5.77,20.64,5.77s14.46-2.03,20.64-5.77l-13.57-117.59c-.16-1.39.1-2.79.74-4.03.12-.25,3.9-8.09,3.9-22.36,0-6.88-4.71-14.24-11.71-14.24s-11.71,7.36-11.71,14.24c0,14.44,3.87,22.29,3.91,22.37.66,1.25.9,2.62.73,4.02l-13.57,117.59Z" style="fill:#2a1a43; stroke-width:0px;"></path><path d="m606.16,463.25c-3.88,0-7.03-3.15-7.03-7.03v-142.24l-200.45-38.27c-3.81-.73-6.31-4.41-5.59-8.22.73-3.81,4.41-6.31,8.22-5.59l206.16,39.36c3.31.63,5.71,3.53,5.71,6.9v148.06c0,3.88-3.15,7.03-7.03,7.03Z" style="fill:#2a1a43; stroke-width:0px;"></path></svg> 