<?xml version="1.0" encoding="UTF-8"?> <svg xmlns="http://www.w3.org/2000/svg" width="102.371" height="102.371" viewBox="0 0 102.371 102.371"><g id="icon-text-column-icon-7" transform="translate(0)"><path id="Path_1175" data-name="Path 1175" d="M1193.642,1828.129a.633.633,0,0,1,1.132,0l3.263,6.608,7.291,1.049a.609.609,0,0,1,.5.433.594.594,0,0,1-.15.632l-5.277,5.16,1.232,7.258a.609.609,0,0,1-.25.616.645.645,0,0,1-.649.05l-6.525-3.446-6.525,3.446a.645.645,0,0,1-.649-.05.609.609,0,0,1-.25-.616l1.232-7.258-5.277-5.16a.594.594,0,0,1-.15-.632.608.608,0,0,1,.5-.433l7.291-1.049Z" transform="translate(-1143.023 -1816.91)" fill="#fff"></path><path id="Path_1176" data-name="Path 1176" d="M1201.2,2025.192v6.658h-26.633v-6.658l2.1-.7a11.533,11.533,0,0,0,7.89-10.953h6.658a11.533,11.533,0,0,0,7.89,10.953Z" transform="translate(-1136.697 -1964.019)" fill="#7ed1e1"></path><path id="Path_1177" data-name="Path 1177" d="M1187.186,1791.527V1810.6a19.193,19.193,0,0,1-.216,2.946h-.017a20.44,20.44,0,0,1-13.083,16.263h-9.987a20.44,20.44,0,0,1-13.083-16.263h-.017a19.208,19.208,0,0,1-.216-2.946V1781.54h36.62Zm-6.841,8.706a.593.593,0,0,0,.15-.633.609.609,0,0,0-.5-.433l-7.291-1.049-3.263-6.608a.633.633,0,0,0-1.132,0l-3.262,6.608-7.291,1.049a.609.609,0,0,0-.5.433.594.594,0,0,0,.15.633l5.277,5.16-1.232,7.258a.61.61,0,0,0,.25.616.645.645,0,0,0,.649.05l6.525-3.446,6.525,3.446a.645.645,0,0,0,.649-.05.609.609,0,0,0,.25-.616l-1.232-7.258Z" transform="translate(-1117.691 -1780.291)" fill="#7ed1e1"></path><path id="Path_1178" data-name="Path 1178" d="M1009.019,1997.953a4.74,4.74,0,0,1,5.26.7l11.169,9.921a9.622,9.622,0,0,0,2.863,1.781c7.957,3.246,11.868,11.552,11.868,14.465a22.884,22.884,0,0,1-1.149,7.041,10.109,10.109,0,0,0-.5,3.146v4.794h-20.025v-5.776c0-2.747-19.941-24.652-19.941-29.18v-20.807a2.493,2.493,0,0,1,2.5-2.5,4.5,4.5,0,0,1,4.478,4.145l1.232,15.913a3.848,3.848,0,0,1,.183-1.215,4.034,4.034,0,0,1,2.064-2.43" transform="translate(-997.317 -1938.677)" fill="#fff"></path><path id="Path_1179" data-name="Path 1179" d="M1304.467,1998.652a4.74,4.74,0,0,1,5.26-.7,4.033,4.033,0,0,1,2.064,2.43,3.843,3.843,0,0,1,.183,1.215l1.232-15.913a4.5,4.5,0,0,1,4.478-4.145,2.494,2.494,0,0,1,2.5,2.5v20.807c0,4.528-19.942,26.433-19.942,29.18v5.776h-20.025v-4.794a10.112,10.112,0,0,0-.5-3.146,22.88,22.88,0,0,1-1.149-7.041c0-2.913,3.912-11.219,11.868-14.465a9.62,9.62,0,0,0,2.863-1.781Z" transform="translate(-1219.057 -1938.677)" fill="#fff"></path><path id="Path_1180" data-name="Path 1180" d="M1377.974,2036.3a1.249,1.249,0,0,1-1.248-1.248v-5.776c0-1.5,2.174-4.406,8.387-12.33,2.8-3.571,5.7-7.263,7.942-10.445,3.26-4.616,3.612-6.017,3.612-6.405v-20.807a1.25,1.25,0,0,0-1.249-1.248,3.261,3.261,0,0,0-3.233,2.994l-1.232,15.911a1.248,1.248,0,0,1-2.489-.192l1.232-15.913a5.771,5.771,0,0,1,5.722-5.3,3.75,3.75,0,0,1,3.745,3.745v20.807c0,2.769-4.786,9.08-12.086,18.391-3.366,4.293-7.549,9.628-7.855,10.847v5.719a1.249,1.249,0,0,1-1.249,1.248" transform="translate(-1296.793 -1933.926)" fill="#2a1b43"></path><path id="Path_1181" data-name="Path 1181" d="M1275.462,2096.852a1.248,1.248,0,0,1-1.248-1.249v-4.794a8.831,8.831,0,0,0-.437-2.757,24.109,24.109,0,0,1-1.211-7.43c0-1.968,1.245-5.037,3.173-7.819a21.677,21.677,0,0,1,9.473-7.8,8.363,8.363,0,0,0,2.5-1.552l11.176-9.927a5.962,5.962,0,0,1,6.647-.882,5.3,5.3,0,0,1,2.7,3.169,5.089,5.089,0,0,1,.242,1.593c0,.026,0,.052,0,.078l-.033.532c0,.029,0,.058-.009.087a5.268,5.268,0,0,1-.612,1.873,1.243,1.243,0,0,1-.208.277l-12.934,12.934a1.249,1.249,0,0,1-1.766-1.766l12.8-12.8a2.819,2.819,0,0,0,.242-.81l.028-.444a2.566,2.566,0,0,0-.119-.784c0-.011-.008-.023-.011-.035a2.789,2.789,0,0,0-1.427-1.674,3.475,3.475,0,0,0-3.874.517l-11.168,9.919a10.786,10.786,0,0,1-3.222,2,19.185,19.185,0,0,0-8.361,6.912c-2,2.888-2.728,5.408-2.728,6.4a21.584,21.584,0,0,0,1.086,6.651,11.332,11.332,0,0,1,.562,3.537v4.794a1.248,1.248,0,0,1-1.248,1.249" transform="translate(-1214.306 -1994.482)" fill="#2a1b43"></path><path id="Path_1182" data-name="Path 1182" d="M1013.756,2036.3a1.248,1.248,0,0,1-1.248-1.248v-5.719c-.306-1.219-4.489-6.553-7.855-10.847-7.3-9.311-12.086-15.621-12.086-18.391v-20.807a3.75,3.75,0,0,1,3.745-3.745,5.771,5.771,0,0,1,5.722,5.3l1.232,15.915a1.248,1.248,0,0,1-2.489.192l-1.232-15.913a3.261,3.261,0,0,0-3.233-2.993,1.25,1.25,0,0,0-1.248,1.248v20.807c0,.388.352,1.79,3.612,6.405,2.247,3.182,5.142,6.874,7.942,10.445,6.213,7.924,8.387,10.83,8.387,12.33v5.776a1.248,1.248,0,0,1-1.248,1.248" transform="translate(-992.566 -1933.926)" fill="#2a1b43"></path><path id="Path_1183" data-name="Path 1183" d="M1065.014,2096.852a1.249,1.249,0,0,1-1.248-1.249v-4.794a11.325,11.325,0,0,1,.562-3.535,21.585,21.585,0,0,0,1.086-6.652c0-.989-.727-3.508-2.728-6.4a19.188,19.188,0,0,0-8.363-6.912,10.8,10.8,0,0,1-3.228-2.01l-11.162-9.915a3.475,3.475,0,0,0-3.873-.516,2.79,2.79,0,0,0-1.427,1.674c0,.011-.007.023-.011.034a2.568,2.568,0,0,0-.119.784l.028.444a2.819,2.819,0,0,0,.242.81l12.8,12.8a1.248,1.248,0,0,1-1.766,1.766l-12.934-12.934a1.248,1.248,0,0,1-.209-.276,5.275,5.275,0,0,1-.612-1.873c0-.029-.007-.058-.009-.087l-.033-.533c0-.026,0-.052,0-.078a5.088,5.088,0,0,1,.242-1.593,5.3,5.3,0,0,1,2.7-3.169,5.961,5.961,0,0,1,6.646.881l11.171,9.922a8.371,8.371,0,0,0,2.5,1.557,21.682,21.682,0,0,1,9.474,7.8c1.928,2.781,3.173,5.851,3.173,7.819a24.11,24.11,0,0,1-1.211,7.432,8.832,8.832,0,0,0-.437,2.755v4.794a1.248,1.248,0,0,1-1.248,1.249" transform="translate(-1023.799 -1994.48)" fill="#2a1b43"></path><path id="Path_1184" data-name="Path 1184" d="M1169.118,1826.309h-9.987a1.25,1.25,0,0,1-.437-.079,21.654,21.654,0,0,1-13.853-17.057,1.2,1.2,0,0,1-.043-.184,20.563,20.563,0,0,1-.231-3.138v-29.063a1.248,1.248,0,0,1,1.248-1.248h36.62a1.248,1.248,0,0,1,1.248,1.248v29.063a20.547,20.547,0,0,1-.231,3.138,1.235,1.235,0,0,1-.044.187,21.655,21.655,0,0,1-13.852,17.054,1.25,1.25,0,0,1-.437.079m-9.758-2.5h9.528a19.159,19.159,0,0,0,12.077-15.189,1.219,1.219,0,0,1,.047-.208,17.989,17.989,0,0,0,.173-2.564v-27.815h-34.123v27.815a17.955,17.955,0,0,0,.174,2.567,1.205,1.205,0,0,1,.047.2,19.159,19.159,0,0,0,12.077,15.189" transform="translate(-1112.939 -1775.54)" fill="#2a1b43"></path><path id="Path_1185" data-name="Path 1185" d="M1196.448,2028.347h-26.633a1.248,1.248,0,0,1-1.248-1.248v-6.658a1.248,1.248,0,0,1,.854-1.184l2.1-.7a10.272,10.272,0,0,0,7.036-9.769,1.248,1.248,0,1,1,2.5,0,12.765,12.765,0,0,1-8.745,12.138l-1.242.414v4.51H1195.2v-4.51l-1.244-.415a12.764,12.764,0,0,1-8.744-12.137,1.248,1.248,0,1,1,2.5,0,10.271,10.271,0,0,0,7.035,9.768l2.1.7a1.248,1.248,0,0,1,.854,1.184v6.658a1.248,1.248,0,0,1-1.248,1.248" transform="translate(-1131.946 -1959.267)" fill="#2a1b43"></path><path id="Path_1186" data-name="Path 1186" d="M1240.8,2066.037h-14.981a1.248,1.248,0,0,1,0-2.5H1240.8a1.248,1.248,0,1,1,0,2.5" transform="translate(-1176.294 -2003.616)" fill="#2a1b43"></path><path id="Path_1187" data-name="Path 1187" d="M1322.962,1813.968a1.248,1.248,0,0,1-1.039-1.94l.033-.05a1.254,1.254,0,0,1,.158-.192l.033-.033a1.291,1.291,0,0,1,.1-.09l.017-.014,12.992-13.655a7.073,7.073,0,1,0-9.41.748,1.248,1.248,0,0,1-1.509,1.99,9.573,9.573,0,1,1,12.731-1.02l-13.05,13.716-.02.021h0l0,0h0l-.149.149a1.247,1.247,0,0,1-.883.366" transform="translate(-1252.318 -1781.875)" fill="#2a1b43"></path><path id="Path_1188" data-name="Path 1188" d="M1325.976,1927.3a5.416,5.416,0,0,1-5.41-5.41,4.6,4.6,0,0,1,.025-.558,5.3,5.3,0,0,1,1.489-3.188,1.248,1.248,0,0,1,1.766,1.765,2.805,2.805,0,0,0-.773,1.7c0,.008,0,.016,0,.024-.007.056-.007.175-.007.261a2.913,2.913,0,0,0,5.826,0,1.248,1.248,0,1,1,2.5,0,5.416,5.416,0,0,1-5.41,5.41" transform="translate(-1252.319 -1888.185)" fill="#2a1b43"></path><path id="Path_1189" data-name="Path 1189" d="M1078.3,1820.993a5.416,5.416,0,0,1-5.41-5.41,1.248,1.248,0,0,1,2.5,0,2.913,2.913,0,0,0,5.826,0c0-.087,0-.205-.007-.261,0-.008,0-.016,0-.024a2.8,2.8,0,0,0-.773-1.695l-.021-.022-13.2-13.866a9.57,9.57,0,1,1,12.728,1.016,1.248,1.248,0,1,1-1.508-1.989,7.076,7.076,0,1,0-9.408-.745l13.187,13.852a5.306,5.306,0,0,1,1.478,3.176,4.6,4.6,0,0,1,.025.558,5.416,5.416,0,0,1-5.41,5.41" transform="translate(-1049.585 -1781.875)" fill="#2a1b43"></path><path id="Path_1190" data-name="Path 1190" d="M1182.644,1846.5a1.866,1.866,0,0,1-1.838-2.207l1.119-6.594-4.809-4.7a1.88,1.88,0,0,1,1.046-3.193l6.639-.955,2.971-6.019.02-.039a1.881,1.881,0,0,1,3.33,0l.02.039,2.971,6.019,6.64.955a1.88,1.88,0,0,1,1.055,3.183l-4.82,4.713,1.119,6.594a1.848,1.848,0,0,1-.728,1.843,1.9,1.9,0,0,1-1.921.184l-.06-.029-5.942-3.138-5.942,3.138-.06.029a1.936,1.936,0,0,1-.811.179m6.813-6.006a1.248,1.248,0,0,1,.583.145l5.4,2.851-1.021-6.016a1.248,1.248,0,0,1,.358-1.1l4.374-4.277-6.042-.869a1.248,1.248,0,0,1-.942-.683l-2.709-5.487-2.709,5.487a1.248,1.248,0,0,1-.942.683l-6.042.869,4.374,4.277a1.248,1.248,0,0,1,.358,1.1l-1.021,6.016,5.4-2.851a1.248,1.248,0,0,1,.583-.145m-3.828-10.5h0Z" transform="translate(-1138.271 -1812.159)" fill="#2a1b43"></path><path id="Path_1191" data-name="Path 1191" d="M1448.473,1858.037h-6.658a1.248,1.248,0,0,1,0-2.5h6.658a1.248,1.248,0,0,1,0,2.5" transform="translate(-1347.35 -1838.894)" fill="#2a1b43"></path><path id="Path_1192" data-name="Path 1192" d="M1000.473,1858.037h-6.658a1.248,1.248,0,1,1,0-2.5h6.658a1.248,1.248,0,0,1,0,2.5" transform="translate(-992.566 -1838.894)" fill="#2a1b43"></path><path id="Path_1193" data-name="Path 1193" d="M1434.693,1797.671a1.249,1.249,0,0,1-.321-2.455l6.425-1.715a1.248,1.248,0,0,1,.644,2.413l-6.425,1.715a1.254,1.254,0,0,1-.323.042" transform="translate(-1341.71 -1789.73)" fill="#2a1b43"></path><path id="Path_1194" data-name="Path 1194" d="M1008.479,1797.671a1.25,1.25,0,0,1-.323-.042l-6.425-1.714a1.249,1.249,0,0,1,.644-2.413l6.425,1.715a1.249,1.249,0,0,1-.321,2.455" transform="translate(-999.09 -1789.731)" fill="#2a1b43"></path><path id="Path_1195" data-name="Path 1195" d="M1441.119,1913.591a1.254,1.254,0,0,1-.323-.042l-6.425-1.715a1.248,1.248,0,1,1,.644-2.412l6.425,1.715a1.249,1.249,0,0,1-.321,2.455" transform="translate(-1341.71 -1881.531)" fill="#2a1b43"></path><path id="Path_1196" data-name="Path 1196" d="M1002.053,1913.591a1.249,1.249,0,0,1-.321-2.455l6.425-1.715a1.248,1.248,0,0,1,.644,2.412l-6.425,1.715a1.254,1.254,0,0,1-.323.042" transform="translate(-999.09 -1881.531)" fill="#2a1b43"></path></g></svg> 