<!DOCTYPE svg PUBLIC "-//W3C//DTD SVG 1.1//EN" "http://www.w3.org/Graphics/SVG/1.1/DTD/svg11.dtd">
<!-- Uploaded to: SVG Repo, www.svgrepo.com, Transformed by: SVG Repo Mixer Tools -->
<svg fill="#06202B" version="1.1" id="Layer_1" xmlns="http://www.w3.org/2000/svg" xmlns:xlink="http://www.w3.org/1999/xlink" viewBox="0 0 490 490" xml:space="preserve" width="800px" height="800px">
<g id="SVGRepo_bgCarrier" stroke-width="0"/>
<g id="SVGRepo_tracerCarrier" stroke-linecap="round" stroke-linejoin="round"/>
<g id="SVGRepo_iconCarrier"> <g> <g> <g> <path d="M430,20h-95V10c0-5.523-4.477-10-10-10H165c-5.523,0-10,4.477-10,10v10H60c-5.523,0-10,4.478-10,10v450 c0,5.522,4.477,10,10,10h370c5.523,0,10-4.478,10-10V30C440,24.478,435.523,20,430,20z M165,70h140V50H175V20h140v40 c0,5.522,4.477,10,10,10h15v15H150V70H165z M140,105h210c5.523,0,10-4.478,10-10v-5h20v340H110V90h20v5 C130,100.522,134.477,105,140,105z M420,470H70V40h85v10h-5c-11.028,0-20,8.972-20,20h-30c-5.523,0-10,4.478-10,10v360 c0,5.522,4.477,10,10,10h290c5.523,0,10-4.478,10-10V80c0-5.522-4.477-10-10-10h-30c0-11.028-8.972-20-20-20h-5V40h85V470z"/> <rect x="175" y="145" width="180" height="20"/> <rect x="135" y="185" width="220" height="20"/> <rect x="135" y="345" width="220" height="20"/> <rect x="135" y="385" width="165" height="20"/> <rect x="245" y="225" width="110" height="20"/> <rect x="245" y="265" width="110" height="20"/> <rect x="245" y="305" width="110" height="20"/> <path d="M145,325h75c5.523,0,10-4.478,10-10v-85c0-5.523-4.477-10-10-10h-75c-5.523,0-10,4.477-10,10v85 C135,320.522,139.477,325,145,325z M155,240h55v65h-55V240z"/> </g> </g> </g> </g>
</svg>